<mxfile host="app.diagrams.net" modified="2023-08-17T17:11:39.557Z" agent="Mozilla/5.0 (Windows NT 10.0; Win64; x64) AppleWebKit/537.36 (KHTML, like Gecko) Chrome/115.0.0.0 Safari/537.36" etag="xo4B13Ede0SlU-Gkc601" version="21.6.8" type="device">
  <diagram name="Page-1" id="Qp09FnAiYLoBZOOaBMhr">
    <mxGraphModel dx="989" dy="523" grid="1" gridSize="10" guides="1" tooltips="1" connect="1" arrows="1" fold="1" page="1" pageScale="1" pageWidth="850" pageHeight="1100" math="0" shadow="0">
      <root>
        <mxCell id="0" />
        <mxCell id="1" parent="0" />
        <mxCell id="u7iDr6BTxOhl53k5LtQc-2" value="Teams" style="swimlane;fontStyle=0;childLayout=stackLayout;horizontal=1;startSize=30;horizontalStack=0;resizeParent=1;resizeParentMax=0;resizeLast=0;collapsible=1;marginBottom=0;whiteSpace=wrap;html=1;" vertex="1" parent="1">
          <mxGeometry x="577.5" y="270" width="105" height="120" as="geometry" />
        </mxCell>
        <mxCell id="u7iDr6BTxOhl53k5LtQc-3" value="ARI Cardinals" style="text;strokeColor=none;fillColor=none;align=left;verticalAlign=middle;spacingLeft=4;spacingRight=4;overflow=hidden;points=[[0,0.5],[1,0.5]];portConstraint=eastwest;rotatable=0;whiteSpace=wrap;html=1;" vertex="1" parent="u7iDr6BTxOhl53k5LtQc-2">
          <mxGeometry y="30" width="105" height="30" as="geometry" />
        </mxCell>
        <mxCell id="u7iDr6BTxOhl53k5LtQc-4" value="CIN Bengals" style="text;strokeColor=none;fillColor=none;align=left;verticalAlign=middle;spacingLeft=4;spacingRight=4;overflow=hidden;points=[[0,0.5],[1,0.5]];portConstraint=eastwest;rotatable=0;whiteSpace=wrap;html=1;" vertex="1" parent="u7iDr6BTxOhl53k5LtQc-2">
          <mxGeometry y="60" width="105" height="30" as="geometry" />
        </mxCell>
        <mxCell id="u7iDr6BTxOhl53k5LtQc-5" value="..." style="text;strokeColor=none;fillColor=none;align=left;verticalAlign=middle;spacingLeft=4;spacingRight=4;overflow=hidden;points=[[0,0.5],[1,0.5]];portConstraint=eastwest;rotatable=0;whiteSpace=wrap;html=1;" vertex="1" parent="u7iDr6BTxOhl53k5LtQc-2">
          <mxGeometry y="90" width="105" height="30" as="geometry" />
        </mxCell>
        <mxCell id="u7iDr6BTxOhl53k5LtQc-9" value="Game N Details" style="swimlane;fontStyle=0;childLayout=stackLayout;horizontal=1;startSize=30;horizontalStack=0;resizeParent=1;resizeParentMax=0;resizeLast=0;collapsible=1;marginBottom=0;whiteSpace=wrap;html=1;" vertex="1" parent="1">
          <mxGeometry x="560" y="105" width="140" height="90" as="geometry" />
        </mxCell>
        <mxCell id="u7iDr6BTxOhl53k5LtQc-10" value="Team A: P(A) of winning" style="text;strokeColor=none;fillColor=none;align=left;verticalAlign=middle;spacingLeft=4;spacingRight=4;overflow=hidden;points=[[0,0.5],[1,0.5]];portConstraint=eastwest;rotatable=0;whiteSpace=wrap;html=1;" vertex="1" parent="u7iDr6BTxOhl53k5LtQc-9">
          <mxGeometry y="30" width="140" height="30" as="geometry" />
        </mxCell>
        <mxCell id="u7iDr6BTxOhl53k5LtQc-17" value="Team B: P(B) of winning" style="text;strokeColor=none;fillColor=none;align=left;verticalAlign=middle;spacingLeft=4;spacingRight=4;overflow=hidden;points=[[0,0.5],[1,0.5]];portConstraint=eastwest;rotatable=0;whiteSpace=wrap;html=1;" vertex="1" parent="u7iDr6BTxOhl53k5LtQc-9">
          <mxGeometry y="60" width="140" height="30" as="geometry" />
        </mxCell>
        <mxCell id="u7iDr6BTxOhl53k5LtQc-27" style="edgeStyle=orthogonalEdgeStyle;rounded=0;orthogonalLoop=1;jettySize=auto;html=1;exitX=0.5;exitY=1;exitDx=0;exitDy=0;entryX=0.5;entryY=0;entryDx=0;entryDy=0;" edge="1" parent="1" source="u7iDr6BTxOhl53k5LtQc-14" target="u7iDr6BTxOhl53k5LtQc-19">
          <mxGeometry relative="1" as="geometry" />
        </mxCell>
        <mxCell id="u7iDr6BTxOhl53k5LtQc-14" value="Grab details of game N" style="rounded=0;whiteSpace=wrap;html=1;" vertex="1" parent="1">
          <mxGeometry x="340" y="55" width="135" height="60" as="geometry" />
        </mxCell>
        <mxCell id="u7iDr6BTxOhl53k5LtQc-28" style="edgeStyle=orthogonalEdgeStyle;rounded=0;orthogonalLoop=1;jettySize=auto;html=1;exitX=0.5;exitY=1;exitDx=0;exitDy=0;entryX=0.5;entryY=0;entryDx=0;entryDy=0;" edge="1" parent="1" source="u7iDr6BTxOhl53k5LtQc-19" target="u7iDr6BTxOhl53k5LtQc-20">
          <mxGeometry relative="1" as="geometry" />
        </mxCell>
        <mxCell id="u7iDr6BTxOhl53k5LtQc-19" value="Generate random number between 0 and 1" style="rounded=0;whiteSpace=wrap;html=1;" vertex="1" parent="1">
          <mxGeometry x="347.5" y="165" width="120" height="60" as="geometry" />
        </mxCell>
        <mxCell id="u7iDr6BTxOhl53k5LtQc-29" style="edgeStyle=orthogonalEdgeStyle;rounded=0;orthogonalLoop=1;jettySize=auto;html=1;exitX=0.5;exitY=1;exitDx=0;exitDy=0;entryX=0.5;entryY=0;entryDx=0;entryDy=0;" edge="1" parent="1" source="u7iDr6BTxOhl53k5LtQc-20" target="u7iDr6BTxOhl53k5LtQc-21">
          <mxGeometry relative="1" as="geometry" />
        </mxCell>
        <mxCell id="u7iDr6BTxOhl53k5LtQc-20" value="Using random number, see if Team A or Team B won" style="rounded=0;whiteSpace=wrap;html=1;" vertex="1" parent="1">
          <mxGeometry x="347.5" y="275" width="120" height="60" as="geometry" />
        </mxCell>
        <mxCell id="u7iDr6BTxOhl53k5LtQc-31" style="edgeStyle=orthogonalEdgeStyle;rounded=0;orthogonalLoop=1;jettySize=auto;html=1;exitX=0;exitY=0.5;exitDx=0;exitDy=0;entryX=0.5;entryY=1;entryDx=0;entryDy=0;" edge="1" parent="1" source="u7iDr6BTxOhl53k5LtQc-21" target="u7iDr6BTxOhl53k5LtQc-30">
          <mxGeometry relative="1" as="geometry" />
        </mxCell>
        <mxCell id="u7iDr6BTxOhl53k5LtQc-21" value="Increment winners&#39; win tally by 1" style="rounded=0;whiteSpace=wrap;html=1;" vertex="1" parent="1">
          <mxGeometry x="347.5" y="385" width="120" height="60" as="geometry" />
        </mxCell>
        <mxCell id="u7iDr6BTxOhl53k5LtQc-23" value="3 wins" style="text;strokeColor=none;fillColor=none;align=left;verticalAlign=middle;spacingLeft=4;spacingRight=4;overflow=hidden;points=[[0,0.5],[1,0.5]];portConstraint=eastwest;rotatable=0;whiteSpace=wrap;html=1;" vertex="1" parent="1">
          <mxGeometry x="720" y="300" width="105" height="30" as="geometry" />
        </mxCell>
        <mxCell id="u7iDr6BTxOhl53k5LtQc-24" value="5 wins" style="text;strokeColor=none;fillColor=none;align=left;verticalAlign=middle;spacingLeft=4;spacingRight=4;overflow=hidden;points=[[0,0.5],[1,0.5]];portConstraint=eastwest;rotatable=0;whiteSpace=wrap;html=1;" vertex="1" parent="1">
          <mxGeometry x="720" y="330" width="105" height="30" as="geometry" />
        </mxCell>
        <mxCell id="u7iDr6BTxOhl53k5LtQc-25" value="" style="endArrow=classic;html=1;rounded=0;entryX=0;entryY=0.5;entryDx=0;entryDy=0;exitX=1;exitY=0.5;exitDx=0;exitDy=0;" edge="1" parent="1" source="u7iDr6BTxOhl53k5LtQc-3" target="u7iDr6BTxOhl53k5LtQc-23">
          <mxGeometry width="50" height="50" relative="1" as="geometry">
            <mxPoint x="410" y="360" as="sourcePoint" />
            <mxPoint x="460" y="310" as="targetPoint" />
          </mxGeometry>
        </mxCell>
        <mxCell id="u7iDr6BTxOhl53k5LtQc-26" style="edgeStyle=orthogonalEdgeStyle;rounded=0;orthogonalLoop=1;jettySize=auto;html=1;exitX=1;exitY=0.5;exitDx=0;exitDy=0;entryX=0;entryY=0.5;entryDx=0;entryDy=0;" edge="1" parent="1" source="u7iDr6BTxOhl53k5LtQc-4" target="u7iDr6BTxOhl53k5LtQc-24">
          <mxGeometry relative="1" as="geometry" />
        </mxCell>
        <mxCell id="u7iDr6BTxOhl53k5LtQc-32" style="edgeStyle=orthogonalEdgeStyle;rounded=0;orthogonalLoop=1;jettySize=auto;html=1;exitX=0.5;exitY=0;exitDx=0;exitDy=0;entryX=0;entryY=0.5;entryDx=0;entryDy=0;" edge="1" parent="1" source="u7iDr6BTxOhl53k5LtQc-30" target="u7iDr6BTxOhl53k5LtQc-14">
          <mxGeometry relative="1" as="geometry" />
        </mxCell>
        <mxCell id="u7iDr6BTxOhl53k5LtQc-30" value="Increment N by 1" style="rounded=0;whiteSpace=wrap;html=1;" vertex="1" parent="1">
          <mxGeometry x="160" y="220" width="120" height="60" as="geometry" />
        </mxCell>
        <mxCell id="u7iDr6BTxOhl53k5LtQc-34" value="" style="swimlane;startSize=0;" vertex="1" parent="1">
          <mxGeometry x="540" y="90" width="240" height="320" as="geometry" />
        </mxCell>
      </root>
    </mxGraphModel>
  </diagram>
</mxfile>
